<svg width="16" height="19" viewBox="0 0 16 19" fill="none" xmlns="http://www.w3.org/2000/svg">
<path d="M14.4451 12.5686C13.8244 11.9557 13.0494 11.9557 12.4326 12.5686C11.9621 13.0351 11.4916 13.5017 11.029 13.9762C10.9025 14.1067 10.7958 14.1343 10.6416 14.0473C10.3371 13.8813 10.0129 13.7468 9.72032 13.565C8.35627 12.707 7.21362 11.6038 6.20145 10.3623C5.69932 9.74551 5.25254 9.08521 4.94019 8.34188C4.87693 8.19163 4.88879 8.09278 5.01136 7.97021C5.48186 7.51551 5.9405 7.04895 6.40309 6.58239C7.04756 5.93395 7.04756 5.17481 6.39914 4.52241C6.03144 4.15075 5.66373 3.78699 5.29603 3.41532C4.91647 3.03575 4.54086 2.65222 4.15734 2.2766C3.5366 1.67166 2.76165 1.67166 2.14486 2.28056C1.67041 2.74712 1.21572 3.22554 0.733359 3.68419C0.286581 4.10725 0.061215 4.62522 0.0137696 5.23016C-0.0613524 6.21468 0.179829 7.14385 0.519855 8.04929C1.21572 9.92343 2.27534 11.588 3.56032 13.1142C5.29603 15.1782 7.36782 16.8111 9.79149 17.9894C10.8827 18.5192 12.0135 18.9264 13.2431 18.9937C14.0893 19.0411 14.8247 18.8276 15.4138 18.1673C15.8171 17.7166 16.2717 17.3053 16.6988 16.8744C17.3314 16.2338 17.3353 15.4589 16.7067 14.8263C15.9554 14.0711 15.2003 13.3198 14.4451 12.5686Z" fill="white"/>
<path d="M13.6902 9.41851L15.1491 9.16942C14.9198 7.82905 14.2872 6.6152 13.3264 5.65045C12.3103 4.6343 11.0253 3.99377 9.60985 3.79608L9.40425 5.26297C10.4995 5.41717 11.4958 5.91141 12.2826 6.69824C13.0259 7.44157 13.5122 8.38259 13.6902 9.41851Z" fill="white"/>
<path d="M15.9714 3.07613C14.2871 1.39177 12.156 0.328173 9.80348 0L9.59789 1.46689C11.6301 1.75157 13.4726 2.67283 14.9276 4.12391C16.3075 5.50382 17.2129 7.24748 17.5411 9.16512L19 8.91603C18.6165 6.69394 17.5687 4.67745 15.9714 3.07613Z" fill="white"/>
</svg>
